<svg xmlns="http://www.w3.org/2000/svg">
  <defs>
    <symbol id='Wallet' viewBox='0 0 512 512'>
      <path
        d="M64 32C28.7 32 0 60.7 0 96V416c0 35.3 28.7 64 64 64H448c35.3 0 64-28.7 64-64V192c0-35.3-28.7-64-64-64H80c-8.8 0-16-7.2-16-16s7.2-16 16-16H448c17.7 0 32-14.3 32-32s-14.3-32-32-32H64zM416 272a32 32 0 1 1 0 64 32 32 0 1 1 0-64z" />
    </symbol>
    <symbol id='Report' viewBox='0 0 1024 1024'>
      <path
        d="M512 981.333333C251.733333 981.333333 42.666667 768 42.666667 507.733333 42.666667 268.8 226.133333 64 469.333333 42.666667v426.666666c0 46.933333 38.4 85.333333 85.333334 85.333334h426.666666c-21.333333 238.933333-226.133333 426.666667-469.333333 426.666666z m469.333333-512h-405.333333c-12.8 0-21.333333-8.533333-21.333333-21.333333V42.666667c226.133333 21.333333 405.333333 200.533333 426.666666 426.666666z"
        p-id="11893"></path>
    </symbol>
    <symbol id='Planning' viewBox='0 0 1024 1024'>
      <path
        d="M736 192a48 48 0 0 0 48-48V48a48 48 0 1 0-96 0v96a48 48 0 0 0 48 48z m-240 0a48 48 0 0 0 48-48V48a48 48 0 1 0-96 0v96a48 48 0 0 0 48 48z m464 640h-48v-48a48 48 0 1 0-96 0v48h-48a48 48 0 1 0 0 96h48v48a48 48 0 1 0 96 0v-48h48a48 48 0 1 0 0-96z m-288 48a96 96 0 0 1 96-96 96 96 0 1 1 192 0V144a48 48 0 0 0-48-48h-80v48a96 96 0 1 1-192 0V96h-48v48a96 96 0 1 1-192 0V96h-48v48a96 96 0 1 1-192 0V96H80a48 48 0 0 0-48 48v832a48 48 0 0 0 48 48h688v-48a96 96 0 0 1-96-96zM208 368h576a48 48 0 1 1 0 96H208a48 48 0 1 1 0-96z m296 496h-304a40 40 0 1 1 0-80h304a40 40 0 1 1 0 80zM624 672H208a48 48 0 1 1 0-96h416a48 48 0 1 1 0 96zM256 192a48 48 0 0 0 48-48V48a48 48 0 1 0-96 0v96a48 48 0 0 0 48 48z"
        p-id="30002"></path>
    </symbol>
    <symbol id='Account' viewBox='0 0 1024 1024'>
      <path
        d="M723.43 508.6c-54.123 47.75-125.977 77.056-205.163 77.056-80.364 0-153.4-30.259-207.765-79.421C184.05 539.325 105.81 652.308 105.81 787.277v68.782c0 160.968 812.39 160.968 812.39 0v-68.782c-0.005-131.415-74.22-242.509-194.77-278.677z m-205.163 28.13c140.165 0 254.095-109.44 254.095-244.64S658.668 47.218 518.267 47.218c-139.93 0-253.855 109.675-253.855 244.874 0 135.204 113.925 244.639 253.855 244.639z m0 0">
      </path>
    </symbol>
    <symbol id="up-arrow" viewBox="0 0 1024 1024">
      <path
        d="M167.253333 466.651429L460.312381 173.592381l51.736381-51.736381 51.712 51.712L856.84419 466.651429l-51.712 51.712-256.512-256.463239v640.24381h-73.142857v-640.24381l-256.487619 256.48762L167.253333 466.651429z">
      </path>
    </symbol>
    <symbol id='down-arrow' viewBox='0 0 1024 1024'>
      <path
        d="M856.84419 557.348571l-293.059047 293.059048-51.736381 51.736381-51.712-51.712L167.253333 557.348571l51.712-51.712 256.512 256.463239V121.856h73.142857v640.24381l256.512-256.48762 51.712 51.736381z">
      </path>
    </symbol>
    <symbol id='donation' viewBox='0 0 1024 1024'>
      <path
        d="M183.515429 492.495238v67.657143l87.161904 0.024381 150.869334 55.734857h159.744a37.010286 37.010286 0 0 1 0 74.020571h-135.216762a12.361143 12.361143 0 0 0 0 24.697905h156.086857c10.630095 0 21.138286-2.267429 30.817524-6.704762l190.634666-87.064381a64.26819 64.26819 0 0 1 84.016762 29.354667 61.293714 61.293714 0 0 1-27.233524 82.578286L519.509333 913.310476a123.66019 123.66019 0 0 1-96.475428 6.022095l-197.388191-69.680761H183.515429v62.464H109.714286V492.495238h73.801143zM527.969524 97.52381C704.609524 97.52381 847.823238 241.200762 847.823238 418.425905c0 56.417524-14.506667 109.470476-40.009143 155.526095l-4.486095 1.926095-137.020952 62.585905-0.780191-4.071619a86.186667 86.186667 0 0 0-84.114286-67.852191l-151.161904-0.02438-150.796191-55.710477H232.71619v-67.705904h-23.649523a326.460952 326.460952 0 0 1-0.926477-24.673524C208.14019 241.176381 351.329524 97.52381 527.969524 97.52381z m60.025905 119.612952l-55.100953 55.369143-55.100952-55.369143-37.546667 37.741714 52.809143 53.101714h-71.582476v53.394286h84.845714v36.156953h-84.845714v53.394285h84.845714l0.024381 52.736h53.101714v-52.736h84.845715v-53.394285h-84.845715v-36.156953h84.845715v-53.394286H572.708571l52.809143-53.101714-37.546666-37.741714z">
      </path>
    </symbol>
    <symbol id='notification' viewBox='0 0 1024 1024'>
      <path
        d="M800 625.066667V448c0-117.333333-70.4-217.6-170.666667-262.4-4.266667-61.866667-55.466667-110.933333-117.333333-110.933333s-113.066667 49.066667-117.333333 110.933333c-100.266667 44.8-170.666667 145.066667-170.666667 262.4v177.066667c-57.6 46.933333-85.333333 110.933333-85.333333 185.6 0 17.066667 14.933333 32 32 32h206.933333c14.933333 61.866667 70.4 106.666667 134.4 106.666666s119.466667-44.8 134.4-106.666666H853.333333c17.066667 0 32-14.933333 32-32 0-76.8-27.733333-138.666667-85.333333-185.6zM512 138.666667c19.2 0 36.266667 10.666667 44.8 25.6-14.933333-2.133333-29.866667-4.266667-44.8-4.266667-14.933333 0-29.866667 2.133333-44.8 4.266667 8.533333-14.933333 25.6-25.6 44.8-25.6z m0 746.666666c-29.866667 0-55.466667-17.066667-66.133333-42.666666h134.4c-12.8 25.6-38.4 42.666667-68.266667 42.666666z m-307.2-106.666666c6.4-46.933333 29.866667-83.2 70.4-113.066667 8.533333-6.4 12.8-14.933333 12.8-25.6v-192c0-123.733333 100.266667-224 224-224S736 324.266667 736 448v192c0 10.666667 4.266667 19.2 12.8 25.6 40.533333 29.866667 64 66.133333 70.4 113.066667H204.8z">
      </path>
    </symbol>
    <symbol id='more' viewBox='0 0 1024 1024'>
      <path
        d="M437.333333 224C437.333333 183.466667 471.466667 149.333333 512 149.333333s74.666667 34.133333 74.666667 74.666667S552.533333 298.666667 512 298.666667s-74.666667-34.133333-74.666667-74.666667zM439.466667 512c0-40.533333 34.133333-74.666667 74.666666-74.666667s74.666667 34.133333 74.666667 74.666667-34.133333 74.666667-74.666667 74.666667-74.666667-34.133333-74.666666-74.666667zM437.333333 800c0-40.533333 34.133333-74.666667 74.666667-74.666667s74.666667 34.133333 74.666667 74.666667S552.533333 874.666667 512 874.666667s-74.666667-34.133333-74.666667-74.666667z">
      </path>
    </symbol>
    <symbol id='add' viewBox='0 0 1024 1024'>
      <path
        d="M863.328 482.56l-317.344-1.12L545.984 162.816c0-17.664-14.336-32-32-32s-32 14.336-32 32l0 318.4L159.616 480.064c-0.032 0-0.064 0-0.096 0-17.632 0-31.936 14.24-32 31.904C127.424 529.632 141.728 544 159.392 544.064l322.592 1.152 0 319.168c0 17.696 14.336 32 32 32s32-14.304 32-32l0-318.944 317.088 1.12c0.064 0 0.096 0 0.128 0 17.632 0 31.936-14.24 32-31.904C895.264 496.992 880.96 482.624 863.328 482.56z">
      </path>
    </symbol>
  </defs>
</svg>
