<svg xmlns="http://www.w3.org/2000/svg">
  <defs>
    <symbol id='Wallet' viewBox='0 0 512 512'>
      <path
        d="M64 32C28.7 32 0 60.7 0 96V416c0 35.3 28.7 64 64 64H448c35.3 0 64-28.7 64-64V192c0-35.3-28.7-64-64-64H80c-8.8 0-16-7.2-16-16s7.2-16 16-16H448c17.7 0 32-14.3 32-32s-14.3-32-32-32H64zM416 272a32 32 0 1 1 0 64 32 32 0 1 1 0-64z" />
    </symbol>
    <symbol id='Report' viewBox='0 0 1024 1024'>
      <path
        d="M512 981.333333C251.733333 981.333333 42.666667 768 42.666667 507.733333 42.666667 268.8 226.133333 64 469.333333 42.666667v426.666666c0 46.933333 38.4 85.333333 85.333334 85.333334h426.666666c-21.333333 238.933333-226.133333 426.666667-469.333333 426.666666z m469.333333-512h-405.333333c-12.8 0-21.333333-8.533333-21.333333-21.333333V42.666667c226.133333 21.333333 405.333333 200.533333 426.666666 426.666666z"
        p-id="11893"></path>
    </symbol>
    <symbol id='Planning' viewBox='0 0 1024 1024'>
      <path
        d="M736 192a48 48 0 0 0 48-48V48a48 48 0 1 0-96 0v96a48 48 0 0 0 48 48z m-240 0a48 48 0 0 0 48-48V48a48 48 0 1 0-96 0v96a48 48 0 0 0 48 48z m464 640h-48v-48a48 48 0 1 0-96 0v48h-48a48 48 0 1 0 0 96h48v48a48 48 0 1 0 96 0v-48h48a48 48 0 1 0 0-96z m-288 48a96 96 0 0 1 96-96 96 96 0 1 1 192 0V144a48 48 0 0 0-48-48h-80v48a96 96 0 1 1-192 0V96h-48v48a96 96 0 1 1-192 0V96h-48v48a96 96 0 1 1-192 0V96H80a48 48 0 0 0-48 48v832a48 48 0 0 0 48 48h688v-48a96 96 0 0 1-96-96zM208 368h576a48 48 0 1 1 0 96H208a48 48 0 1 1 0-96z m296 496h-304a40 40 0 1 1 0-80h304a40 40 0 1 1 0 80zM624 672H208a48 48 0 1 1 0-96h416a48 48 0 1 1 0 96zM256 192a48 48 0 0 0 48-48V48a48 48 0 1 0-96 0v96a48 48 0 0 0 48 48z"
        p-id="30002"></path>
    </symbol>
    <symbol id='Account' viewBox='0 0 1024 1024'>
      <path
        d="M723.43 508.6c-54.123 47.75-125.977 77.056-205.163 77.056-80.364 0-153.4-30.259-207.765-79.421C184.05 539.325 105.81 652.308 105.81 787.277v68.782c0 160.968 812.39 160.968 812.39 0v-68.782c-0.005-131.415-74.22-242.509-194.77-278.677z m-205.163 28.13c140.165 0 254.095-109.44 254.095-244.64S658.668 47.218 518.267 47.218c-139.93 0-253.855 109.675-253.855 244.874 0 135.204 113.925 244.639 253.855 244.639z m0 0">
      </path>
    </symbol>
  </defs>
</svg>
